<?xml version="1.0" standalone="no"?>
<!DOCTYPE svg PUBLIC "-//W3C//DTD SVG 20010904//EN"
 "http://www.w3.org/TR/2001/REC-SVG-20010904/DTD/svg10.dtd">
<svg version="1.0" xmlns="http://www.w3.org/2000/svg"
 width="900.000000pt" height="900.000000pt" viewBox="0 0 900.000000 900.000000"
 preserveAspectRatio="xMidYMid meet">
<metadata>
Created by potrace 1.14, written by Peter Selinger 2001-2017
</metadata>
<g transform="translate(0.000000,900.000000) scale(0.100000,-0.100000)"
fill="#000000" stroke="none">
<path d="M4330 7694 c-286 -25 -439 -49 -634 -99 -442 -114 -807 -293 -1176
-579 -135 -104 -432 -401 -536 -536 -383 -495 -594 -1020 -666 -1655 -16 -142
-16 -508 0 -650 72 -635 283 -1160 666 -1655 104 -135 401 -432 536 -536 495
-383 1020 -594 1655 -666 142 -16 508 -16 650 0 635 72 1160 283 1655 666 135
104 432 401 536 536 383 495 594 1020 666 1655 16 142 16 508 0 650 -72 635
-283 1160 -666 1655 -104 135 -401 432 -536 536 -492 380 -1024 595 -1645 664
-98 11 -433 20 -505 14z m457 -641 c178 -293 303 -549 414 -851 44 -119 129
-391 129 -414 0 -4 -298 -8 -662 -8 l-663 0 -45 87 c-31 62 -66 110 -119 166
l-75 78 54 132 c104 257 252 546 405 786 l76 121 214 0 213 0 59 -97z m-1301
-235 c-79 -165 -163 -360 -220 -515 l-27 -72 -57 -16 c-106 -31 -191 -83 -283
-175 -69 -68 -93 -101 -125 -167 l-39 -82 -278 0 -279 -1 32 58 c96 169 240
354 409 523 208 208 402 352 647 481 108 57 279 136 296 137 3 1 -31 -77 -76
-171z m2213 52 c250 -125 531 -335 726 -541 136 -145 291 -349 379 -501 l28
-48 -466 0 -465 0 -11 43 c-96 372 -211 693 -356 996 -41 85 -74 155 -74 157
0 5 158 -65 239 -106z m-2884 -1682 c16 -24 58 -74 95 -113 l67 -70 -14 -180
c-17 -218 -11 -704 11 -900 9 -71 16 -136 16 -142 0 -10 -110 -13 -520 -13
l-519 0 -16 53 c-24 81 -63 282 -74 389 -16 143 -13 454 4 598 14 113 47 282
75 383 l11 37 418 0 418 0 28 -42z m2654 -65 c30 -274 39 -613 24 -870 l-6
-112 -55 -17 c-167 -48 -333 -182 -400 -321 l-16 -33 -741 0 -741 0 -17 158
c-33 308 -41 510 -28 741 7 118 14 218 17 222 2 4 34 16 71 28 126 38 255 131
340 246 l48 65 746 0 746 0 12 -107z m1590 75 c67 -207 95 -448 88 -758 -5
-242 -19 -361 -69 -577 l-21 -93 -416 0 -416 1 -34 58 c-18 32 -65 90 -103
129 l-70 70 12 238 c7 139 9 313 6 414 -7 170 -31 482 -41 528 l-5 22 529 0
529 0 11 -32z m-3969 -1981 c0 -25 70 -271 121 -427 68 -207 155 -423 240
-599 38 -80 68 -148 67 -151 -4 -9 -190 75 -298 135 -361 199 -683 494 -919
840 -38 55 -83 126 -101 158 l-32 57 461 0 c377 0 461 -2 461 -13z m1924 -34
c30 -63 103 -159 157 -206 61 -54 62 -39 -18 -242 -102 -258 -261 -567 -417
-808 l-56 -87 -147 0 c-82 0 -179 3 -216 7 l-68 6 -36 56 c-110 171 -280 498
-358 686 -86 208 -205 564 -205 611 0 12 114 14 673 14 l673 0 18 -37z m1790
-10 c-113 -197 -237 -356 -414 -534 -224 -225 -416 -366 -684 -505 -112 -58
-277 -134 -291 -134 -1 0 35 74 80 165 79 158 200 449 244 585 21 65 22 66 69
79 81 21 192 83 260 146 61 55 153 179 167 225 6 19 18 20 302 20 l295 0 -28
-47z"/>
</g>
</svg>
